# xmcd
#
# Track frame offsets:
#	150
#	13652
#	38855
#	55140
#	71952
#	86885
#	102952
#	119267
#	132075
#	145145
#
# Disc length: 2163 seconds
#
# Revision: 1
# Processed by: cddbd v1.5.2PL0 Copyright (c) Steve Scherf et al.
# Submitted via: EZCDAudioConverter 6.0.5.1
#
DISCID=8d08710a
DTITLE=Sawyer Brown - True Believer
DYEAR=2003
DGENRE=Country
TTITLE0=Travlin' Shoes
TTITLE1=I Got A Plan
TTITLE2=Lord, Would you Do That For Me
TTITLE3=The Walk
TTITLE4=Still Water
TTITLE5=Circles
TTITLE6=It Wasn't His Child
TTITLE7=The Sun Don't Shine On The Same Folks All The Time
TTITLE8=800 Pound Jesus
TTITLE9=Building A True Believer
EXTD=
EXTT0=
EXTT1=
EXTT2=
EXTT3=
EXTT4=
EXTT5=
EXTT6=
EXTT7=
EXTT8=
EXTT9=
PLAYORDER=
